<?xml version="1.0" encoding="iso-8859-1"?>
<!-- Generator: Adobe Illustrator 19.0.0, SVG Export Plug-In . SVG Version: 6.00 Build 0)  -->
<svg version="1.1" id="Capa_1" xmlns="http://www.w3.org/2000/svg" xmlns:xlink="http://www.w3.org/1999/xlink" x="0px" y="0px"
	 viewBox="0 0 512.001 512.001" style="enable-background:new 0 0 512.001 512.001;" xml:space="preserve">
<path style="fill:#E7F8FF;" d="M324.14,446.003h177.853l0,0v16.999c0,21.538-17.46,38.999-38.999,38.999H49.006
	c-21.538,0-38.999-17.461-38.999-38.999v-16.999h177.842H324.14z"/>
<path style="fill:#F1FBFF;" d="M32.004,444.003V181.607c0-14.128,10.934-25.582,24.419-25.582h30.445h338.515h30.188
	c13.487,0,24.419,11.455,24.419,25.582l0,0v262.395H32.004z"/>
<path style="fill:#98E3FF;" d="M410.369,329.506h19.946c9.834,0,17.806,7.972,17.806,17.806v35.984
	c0,9.834-7.972,17.806-17.806,17.806H81.685c-9.834,0-17.806-7.972-17.806-17.806v-35.984c0-9.834,7.972-17.806,17.806-17.806
	h17.692"/>
<polygon style="fill:#FFFFFF;" points="407.869,365.304 103.89,365.304 103.89,10.013 103.878,10 134.277,40.399 164.676,10 
	195.075,40.399 225.474,10 255.873,40.399 286.272,10 316.672,40.399 347.071,10 377.47,40.399 407.869,10 "/>
<path d="M229.203,484.001h53.34c5.522,0,10-4.477,10-10c0-5.523-4.478-10-10-10h-53.34c-5.522,0-10,4.477-10,10
	C219.203,479.525,223.681,484.001,229.203,484.001z"/>
<path d="M501.993,436.003H489.99V181.607c0-19.62-15.44-35.582-34.419-35.582h-37.703V10c0-4.044-2.437-7.691-6.173-9.239
	c-3.737-1.548-8.038-0.692-10.898,2.167L377.47,26.258L354.142,2.93c-1.875-1.876-4.419-2.93-7.071-2.93
	c-2.652,0-5.195,1.054-7.071,2.929l-23.329,23.328L293.344,2.93c-1.876-1.876-4.419-2.93-7.071-2.93
	c-2.652,0-5.195,1.054-7.071,2.929l-23.329,23.328L232.545,2.929c-1.876-1.875-4.419-2.929-7.071-2.929s-5.195,1.054-7.071,2.929
	l-23.327,23.328L171.747,2.929c-1.876-1.875-4.419-2.929-7.071-2.929s-5.196,1.054-7.071,2.929l-23.327,23.328L110.95,2.929
	c-3.877-3.877-10.146-3.903-14.064-0.065c-2.058,2.016-3.059,4.707-2.995,7.381v135.78H56.423
	c-18.978,0-34.419,15.962-34.419,35.582v254.396H10.008c-5.522,0-10,4.477-10,10v16.999c0,27.018,21.98,48.999,48.999,48.999
	h413.988c27.018,0,48.999-21.98,48.999-48.999v-16.999C511.993,440.48,507.516,436.003,501.993,436.003z M113.889,34.154
	l13.317,13.317c1.876,1.875,4.419,2.929,7.071,2.929s5.195-1.054,7.071-2.929l23.327-23.328l23.328,23.328
	c1.876,1.875,4.419,2.929,7.071,2.929s5.196-1.054,7.071-2.929l23.327-23.328l23.328,23.328c3.906,3.905,10.236,3.905,14.143,0
	l23.328-23.328l23.327,23.328c1.875,1.875,4.419,2.929,7.071,2.929c2.652,0,5.195-1.054,7.071-2.929l23.328-23.328l23.327,23.328
	c1.876,1.875,4.419,2.929,7.071,2.929c2.652,0,5.195-1.054,7.071-2.929l13.329-13.329v321.162H113.889V34.154z M407.869,375.304
	c5.522,0,10-4.477,10-10v-25.798h12.447c4.305,0,7.807,3.502,7.807,7.807v35.984c0,4.305-3.502,7.807-7.807,7.807H81.685
	c-4.305,0-7.807-3.502-7.807-7.807v-35.984c0-4.305,3.502-7.807,7.807-7.807H93.89v25.798c0,5.523,4.478,10,10,10L407.869,375.304
	L407.869,375.304z M42.004,181.607c0-8.592,6.469-15.583,14.42-15.583H93.89v153.481H81.685c-15.333,0-27.806,12.474-27.806,27.806
	v35.984c0,15.333,12.474,27.806,27.806,27.806h348.631c15.333,0,27.806-12.474,27.806-27.806v-35.984
	c0-15.333-12.474-27.806-27.806-27.806h-12.448V166.025h37.703c7.951,0,14.42,6.991,14.42,15.583v254.396H42.004L42.004,181.607
	L42.004,181.607z M491.993,463.002c0,15.991-13.01,28.999-28.999,28.999H49.006c-15.99,0-28.999-13.009-28.999-28.999v-7h471.986
	V463.002z"/>
<path d="M255.879,180.062c-7.744,0-14.045-5.303-14.045-11.822c0-5.523-4.478-10-10-10c-5.522,0-10,4.477-10,10
	c0,14.295,10.137,26.416,24.044,30.418v5.922c0,5.523,4.478,10,10,10c5.522,0,10-4.477,10-10v-5.922
	c13.907-4.003,24.044-16.124,24.044-30.418c0-17.545-15.272-31.821-34.044-31.821c-7.744,0-14.045-5.303-14.045-11.822
	c0-6.519,6.301-11.822,14.045-11.822s14.045,5.303,14.045,11.822c0,5.523,4.478,10,10,10c5.522,0,10-4.477,10-10
	c0-14.295-10.137-26.416-24.044-30.418v-4.732c0-5.523-4.478-10-10-10s-10,4.477-10,10v4.732
	c-13.907,4.003-24.044,16.124-24.044,30.418c0,17.546,15.272,31.821,34.044,31.821c7.744,0,14.045,5.303,14.045,11.822
	C269.924,174.759,263.623,180.062,255.879,180.062z"/>
<path d="M325.417,156.419h16.738c5.522,0,10-4.477,10-10c0-5.523-4.478-10-10-10h-16.738c-5.522,0-10,4.477-10,10
	C315.418,151.942,319.895,156.419,325.417,156.419z"/>
<path d="M186.341,136.42h-16.738c-5.522,0-10,4.477-10,10c0,5.523,4.478,10,10,10h16.738c5.522,0,10-4.477,10-10
	C196.341,140.896,191.864,136.42,186.341,136.42z"/>
<path d="M345.416,232.009H210.997c-5.522,0-10,4.477-10,10s4.478,10,10,10h134.419c5.522,0,10-4.477,10-10
	S350.939,232.009,345.416,232.009z"/>
<path d="M166.346,232.009c-2.64,0-5.22,1.07-7.07,2.93c-1.869,1.86-2.93,4.44-2.93,7.07s1.061,5.21,2.93,7.07
	c1.86,1.86,4.431,2.93,7.07,2.93c2.63,0,5.2-1.07,7.07-2.93c1.859-1.86,2.93-4.44,2.93-7.07s-1.07-5.21-2.93-7.07
	C171.556,233.078,168.976,232.009,166.346,232.009z"/>
<path d="M345.416,288.007H210.997c-5.522,0-10,4.477-10,10c0,5.523,4.478,10,10,10h134.419c5.522,0,10-4.477,10-10
	C355.415,292.484,350.939,288.007,345.416,288.007z"/>
<path d="M166.346,288.007c-2.64,0-5.22,1.07-7.07,2.93c-1.869,1.86-2.93,4.44-2.93,7.07c0,2.63,1.061,5.21,2.93,7.07
	c1.86,1.86,4.431,2.93,7.07,2.93c2.63,0,5.21-1.07,7.07-2.93c1.859-1.86,2.93-4.44,2.93-7.07c0-2.63-1.07-5.21-2.93-7.07
	C171.556,289.076,168.976,288.007,166.346,288.007z"/>
<g>
</g>
<g>
</g>
<g>
</g>
<g>
</g>
<g>
</g>
<g>
</g>
<g>
</g>
<g>
</g>
<g>
</g>
<g>
</g>
<g>
</g>
<g>
</g>
<g>
</g>
<g>
</g>
<g>
</g>
</svg>
